<svg xmlns="http://www.w3.org/2000/svg" xmlns:xlink="http://www.w3.org/1999/xlink" width="1920" zoomAndPan="magnify" viewBox="0 0 1440 809.999993" height="1080" preserveAspectRatio="xMidYMid meet" version="1.0"><defs><filter x="0%" y="0%" width="100%" height="100%" id="4f12e63cf9"><feColorMatrix values="0 0 0 0 1 0 0 0 0 1 0 0 0 0 1 0 0 0 1 0" color-interpolation-filters="sRGB"/></filter><mask id="4250f4be18"><g filter="url(#4f12e63cf9)"><rect x="-144" width="1728" fill="#000000" y="-80.999999" height="971.999992" fill-opacity="0.4471"/></g></mask><clipPath id="44037e456e"><path d="M 0 0 L 1440 0 L 1440 810 L 0 810 Z M 0 0 " clip-rule="nonzero"/></clipPath><clipPath id="c18467de8b"><rect x="0" width="1440" y="0" height="810"/></clipPath></defs><rect x="-144" width="1728" fill="#ffffff" y="-80.999999" height="971.999992" fill-opacity="1"/><rect x="-144" width="1728" fill="#ffffff" y="-80.999999" height="971.999992" fill-opacity="1"/><rect x="-144" width="1728" fill="#ffffff" y="-80.999999" height="971.999992" fill-opacity="1"/><rect x="-144" width="1728" fill="#ffffff" y="-80.999999" height="971.999992" fill-opacity="1"/><path fill="#dc6900" d="M -51.992188 382.523438 L -11.984375 386.804688 C 28.023438 391.269531 108.039062 399.832031 187.679688 418.257812 C 267.511719 436.5 346.78125 464.417969 426.609375 481.167969 C 506.253906 497.921875 586.269531 503.503906 665.910156 493.640625 C 745.742188 483.589844 825.011719 458.277344 904.839844 443.015625 C 984.484375 427.75 1064.5 422.914062 1144.144531 436.5 C 1223.972656 450.085938 1303.242188 482.472656 1383.070312 493.824219 C 1462.714844 505.367188 1542.730469 496.058594 1582.738281 491.40625 L 1622.746094 486.753906 L 1622.746094 825.5 L 1582.738281 825.5 C 1542.730469 825.5 1462.714844 825.5 1383.070312 825.5 C 1303.242188 825.5 1223.972656 825.5 1144.144531 825.5 C 1064.5 825.5 984.484375 825.5 904.839844 825.5 C 825.011719 825.5 745.742188 825.5 665.910156 825.5 C 586.269531 825.5 506.253906 825.5 426.609375 825.5 C 346.78125 825.5 267.511719 825.5 187.679688 825.5 C 108.039062 825.5 28.023438 825.5 -11.984375 825.5 L -51.992188 825.5 Z M -51.992188 382.523438 " fill-opacity="1" fill-rule="nonzero"/><path fill="#d05610" d="M -51.992188 555.621094 L -11.984375 546.3125 C 28.023438 537.007812 108.039062 518.394531 187.679688 508.714844 C 267.511719 499.222656 346.78125 498.480469 426.609375 493.269531 C 506.253906 488.054688 586.269531 478.003906 665.910156 492.335938 C 745.742188 506.667969 825.011719 545.011719 904.839844 540.355469 C 984.484375 535.703125 1064.5 488.054688 1144.144531 472.234375 C 1223.972656 456.414062 1303.242188 472.421875 1383.070312 475.957031 C 1462.714844 479.308594 1542.730469 470.003906 1582.738281 465.347656 L 1622.746094 460.695312 L 1622.746094 825.5 L 1582.738281 825.5 C 1542.730469 825.5 1462.714844 825.5 1383.070312 825.5 C 1303.242188 825.5 1223.972656 825.5 1144.144531 825.5 C 1064.5 825.5 984.484375 825.5 904.839844 825.5 C 825.011719 825.5 745.742188 825.5 665.910156 825.5 C 586.269531 825.5 506.253906 825.5 426.609375 825.5 C 346.78125 825.5 267.511719 825.5 187.679688 825.5 C 108.039062 825.5 28.023438 825.5 -11.984375 825.5 L -51.992188 825.5 Z M -51.992188 555.621094 " fill-opacity="1" fill-rule="nonzero"/><path fill="#c24418" d="M -51.992188 589.121094 L -11.984375 578.511719 C 28.023438 568.089844 108.039062 546.871094 187.679688 551.339844 C 267.511719 555.621094 346.78125 585.398438 426.609375 599.730469 C 506.253906 613.875 586.269531 612.761719 665.910156 604.011719 C 745.742188 595.265625 825.011719 579.257812 904.839844 581.117188 C 984.484375 582.980469 1064.5 602.710938 1144.144531 612.015625 C 1223.972656 621.320312 1303.242188 620.203125 1383.070312 608.292969 C 1462.714844 596.566406 1542.730469 574.230469 1582.738281 563.066406 L 1622.746094 551.898438 L 1622.746094 825.5 L 1582.738281 825.5 C 1542.730469 825.5 1462.714844 825.5 1383.070312 825.5 C 1303.242188 825.5 1223.972656 825.5 1144.144531 825.5 C 1064.5 825.5 984.484375 825.5 904.839844 825.5 C 825.011719 825.5 745.742188 825.5 665.910156 825.5 C 586.269531 825.5 506.253906 825.5 426.609375 825.5 C 346.78125 825.5 267.511719 825.5 187.679688 825.5 C 108.039062 825.5 28.023438 825.5 -11.984375 825.5 L -51.992188 825.5 Z M -51.992188 589.121094 " fill-opacity="1" fill-rule="nonzero"/><path fill="#b3321d" d="M -51.992188 648.683594 L -11.984375 645.519531 C 28.023438 642.539062 108.039062 636.210938 187.679688 638.445312 C 267.511719 640.679688 346.78125 651.101562 426.609375 647.378906 C 506.253906 643.65625 586.269531 625.789062 665.910156 631 C 745.742188 636.210938 825.011719 664.875 904.839844 666.921875 C 984.484375 669.15625 1064.5 644.960938 1144.144531 641.796875 C 1223.972656 638.816406 1303.242188 656.683594 1383.070312 665.992188 C 1462.714844 675.296875 1542.730469 676.042969 1582.738281 676.230469 L 1622.746094 676.601562 L 1622.746094 825.5 L 1582.738281 825.5 C 1542.730469 825.5 1462.714844 825.5 1383.070312 825.5 C 1303.242188 825.5 1223.972656 825.5 1144.144531 825.5 C 1064.5 825.5 984.484375 825.5 904.839844 825.5 C 825.011719 825.5 745.742188 825.5 665.910156 825.5 C 586.269531 825.5 506.253906 825.5 426.609375 825.5 C 346.78125 825.5 267.511719 825.5 187.679688 825.5 C 108.039062 825.5 28.023438 825.5 -11.984375 825.5 L -51.992188 825.5 Z M -51.992188 648.683594 " fill-opacity="1" fill-rule="nonzero"/><path fill="#a32020" d="M -51.992188 756.632812 L -11.984375 746.769531 C 28.023438 736.71875 108.039062 716.988281 187.679688 717.921875 C 267.511719 718.851562 346.78125 740.441406 426.609375 740.441406 C 506.253906 740.441406 586.269531 718.851562 665.910156 706.007812 C 745.742188 693.351562 825.011719 689.628906 904.839844 696.144531 C 984.484375 702.660156 1064.5 719.410156 1144.144531 726.296875 C 1223.972656 732.996094 1303.242188 730.019531 1383.070312 735.789062 C 1462.714844 741.746094 1542.730469 756.632812 1582.738281 764.078125 L 1622.746094 771.523438 L 1622.746094 825.5 L 1582.738281 825.5 C 1542.730469 825.5 1462.714844 825.5 1383.070312 825.5 C 1303.242188 825.5 1223.972656 825.5 1144.144531 825.5 C 1064.5 825.5 984.484375 825.5 904.839844 825.5 C 825.011719 825.5 745.742188 825.5 665.910156 825.5 C 586.269531 825.5 506.253906 825.5 426.609375 825.5 C 346.78125 825.5 267.511719 825.5 187.679688 825.5 C 108.039062 825.5 28.023438 825.5 -11.984375 825.5 L -51.992188 825.5 Z M -51.992188 756.632812 " fill-opacity="1" fill-rule="nonzero"/><g mask="url(#4250f4be18)"><g transform="matrix(1, 0, 0, 1, 0, 0.000000000000039746)"><g clip-path="url(#c18467de8b)"><g clip-path="url(#44037e456e)"><rect x="-316.8" width="2073.6" fill="#a6a6a6" height="1166.39999" y="-178.199998" fill-opacity="1"/></g></g></g></g></svg>