<svg xmlns="http://www.w3.org/2000/svg" xmlns:xlink="http://www.w3.org/1999/xlink" width="1920" zoomAndPan="magnify" viewBox="0 0 1440 809.999993" height="1080" preserveAspectRatio="xMidYMid meet" version="1.0"><rect x="-144" width="1728" fill="#ffffff" y="-80.999999" height="971.999992" fill-opacity="1"/><rect x="-144" width="1728" fill="#ffffff" y="-80.999999" height="971.999992" fill-opacity="1"/><rect x="-144" width="1728" fill="#ffffff" y="-80.999999" height="971.999992" fill-opacity="1"/><rect x="-144" width="1728" fill="#000000" y="-80.999999" height="971.999992" fill-opacity="1"/><path fill="#dc6900" d="M -22.347656 359.519531 L 23.269531 376.074219 C 68.886719 392.839844 160.117188 425.953125 250.925781 442.71875 C 341.945312 459.277344 432.328125 459.277344 523.347656 461.398438 C 614.152344 463.519531 705.386719 467.765625 796.191406 463.519531 C 887.210938 459.277344 977.59375 446.539062 1068.613281 435.292969 C 1159.421875 423.828125 1250.652344 414.066406 1341.460938 418.949219 C 1432.480469 423.828125 1522.863281 443.78125 1613.882812 462.035156 C 1704.691406 480.5 1795.921875 497.480469 1841.539062 505.96875 L 1887.152344 514.460938 L 1887.152344 868.917969 L 1841.539062 868.917969 C 1795.921875 868.917969 1704.691406 868.917969 1613.882812 868.917969 C 1522.863281 868.917969 1432.480469 868.917969 1341.460938 868.917969 C 1250.652344 868.917969 1159.421875 868.917969 1068.613281 868.917969 C 977.59375 868.917969 887.210938 868.917969 796.191406 868.917969 C 705.386719 868.917969 614.152344 868.917969 523.347656 868.917969 C 432.328125 868.917969 341.945312 868.917969 250.925781 868.917969 C 160.117188 868.917969 68.886719 868.917969 23.269531 868.917969 L -22.347656 868.917969 Z M -22.347656 359.519531 " fill-opacity="1" fill-rule="nonzero"/><path fill="#d05610" d="M -22.347656 546.296875 L 23.269531 542.054688 C 68.886719 537.808594 160.117188 529.316406 250.925781 528.679688 C 341.945312 527.832031 432.328125 535.046875 523.347656 547.359375 C 614.152344 559.667969 705.386719 577.5 796.191406 574.953125 C 887.210938 572.40625 977.59375 549.90625 1068.613281 531.863281 C 1159.421875 513.824219 1250.652344 500.238281 1341.460938 502.363281 C 1432.480469 504.484375 1522.863281 522.3125 1613.882812 532.078125 C 1704.691406 542.054688 1795.921875 544.175781 1841.539062 545.238281 L 1887.152344 546.296875 L 1887.152344 868.917969 L 1841.539062 868.917969 C 1795.921875 868.917969 1704.691406 868.917969 1613.882812 868.917969 C 1522.863281 868.917969 1432.480469 868.917969 1341.460938 868.917969 C 1250.652344 868.917969 1159.421875 868.917969 1068.613281 868.917969 C 977.59375 868.917969 887.210938 868.917969 796.191406 868.917969 C 705.386719 868.917969 614.152344 868.917969 523.347656 868.917969 C 432.328125 868.917969 341.945312 868.917969 250.925781 868.917969 C 160.117188 868.917969 68.886719 868.917969 23.269531 868.917969 L -22.347656 868.917969 Z M -22.347656 546.296875 " fill-opacity="1" fill-rule="nonzero"/><path fill="#c24418" d="M -22.347656 548.421875 L 23.269531 560.730469 C 68.886719 573.253906 160.117188 597.875 250.925781 596.601562 C 341.945312 595.113281 432.328125 567.523438 523.347656 562.640625 C 614.152344 557.546875 705.386719 575.375 796.191406 588.324219 C 887.210938 601.484375 977.59375 609.972656 1068.613281 610.398438 C 1159.421875 610.609375 1250.652344 602.96875 1341.460938 606.363281 C 1432.480469 609.972656 1522.863281 624.828125 1613.882812 626.953125 C 1704.691406 629.074219 1795.921875 618.460938 1841.539062 613.15625 L 1887.152344 607.851562 L 1887.152344 868.917969 L 1841.539062 868.917969 C 1795.921875 868.917969 1704.691406 868.917969 1613.882812 868.917969 C 1522.863281 868.917969 1432.480469 868.917969 1341.460938 868.917969 C 1250.652344 868.917969 1159.421875 868.917969 1068.613281 868.917969 C 977.59375 868.917969 887.210938 868.917969 796.191406 868.917969 C 705.386719 868.917969 614.152344 868.917969 523.347656 868.917969 C 432.328125 868.917969 341.945312 868.917969 250.925781 868.917969 C 160.117188 868.917969 68.886719 868.917969 23.269531 868.917969 L -22.347656 868.917969 Z M -22.347656 548.421875 " fill-opacity="1" fill-rule="nonzero"/><path fill="#b3321d" d="M -22.347656 646.054688 L 23.269531 654.542969 C 68.886719 663.035156 160.117188 680.015625 250.925781 685.957031 C 341.945312 692.113281 432.328125 687.019531 523.347656 694.234375 C 614.152344 701.238281 705.386719 720.34375 796.191406 722.464844 C 887.210938 724.585938 977.59375 709.730469 1068.613281 693.8125 C 1159.421875 677.890625 1250.652344 660.914062 1341.460938 653.484375 C 1432.480469 646.054688 1522.863281 648.175781 1613.882812 651.996094 C 1704.691406 656.03125 1795.921875 661.550781 1841.539062 664.519531 L 1887.152344 667.28125 L 1887.152344 868.917969 L 1841.539062 868.917969 C 1795.921875 868.917969 1704.691406 868.917969 1613.882812 868.917969 C 1522.863281 868.917969 1432.480469 868.917969 1341.460938 868.917969 C 1250.652344 868.917969 1159.421875 868.917969 1068.613281 868.917969 C 977.59375 868.917969 887.210938 868.917969 796.191406 868.917969 C 705.386719 868.917969 614.152344 868.917969 523.347656 868.917969 C 432.328125 868.917969 341.945312 868.917969 250.925781 868.917969 C 160.117188 868.917969 68.886719 868.917969 23.269531 868.917969 L -22.347656 868.917969 Z M -22.347656 646.054688 " fill-opacity="1" fill-rule="nonzero"/><path fill="#a32020" d="M -22.347656 743.691406 L 23.269531 753.242188 C 68.886719 762.792969 160.117188 781.894531 250.925781 786.5625 C 341.945312 791.019531 432.328125 781.257812 523.347656 765.976562 C 614.152344 750.695312 705.386719 730.316406 796.191406 730.53125 C 887.210938 730.953125 977.59375 752.179688 1068.613281 768.097656 C 1159.421875 784.015625 1250.652344 794.628906 1341.460938 793.992188 C 1432.480469 793.144531 1522.863281 781.257812 1613.882812 777.011719 C 1704.691406 772.769531 1795.921875 776.164062 1841.539062 778.074219 L 1887.152344 779.773438 L 1887.152344 868.917969 L 1841.539062 868.917969 C 1795.921875 868.917969 1704.691406 868.917969 1613.882812 868.917969 C 1522.863281 868.917969 1432.480469 868.917969 1341.460938 868.917969 C 1250.652344 868.917969 1159.421875 868.917969 1068.613281 868.917969 C 977.59375 868.917969 887.210938 868.917969 796.191406 868.917969 C 705.386719 868.917969 614.152344 868.917969 523.347656 868.917969 C 432.328125 868.917969 341.945312 868.917969 250.925781 868.917969 C 160.117188 868.917969 68.886719 868.917969 23.269531 868.917969 L -22.347656 868.917969 Z M -22.347656 743.691406 " fill-opacity="1" fill-rule="nonzero"/></svg>