<svg id="visual" viewBox="0 0 900 600" width="900" height="600" xmlns="http://www.w3.org/2000/svg" xmlns:xlink="http://www.w3.org/1999/xlink" version="1.1"><rect x="0" y="0" width="900" height="600" fill="#000000"></rect><path d="M0 361L21.5 368.8C43 376.7 86 392.3 128.8 400.2C171.7 408 214.3 408 257.2 409C300 410 343 412 385.8 410C428.7 408 471.3 402 514.2 396.7C557 391.3 600 386.7 642.8 389C685.7 391.3 728.3 400.7 771.2 409.3C814 418 857 426 878.5 430L900 434L900 601L878.5 601C857 601 814 601 771.2 601C728.3 601 685.7 601 642.8 601C600 601 557 601 514.2 601C471.3 601 428.7 601 385.8 601C343 601 300 601 257.2 601C214.3 601 171.7 601 128.8 601C86 601 43 601 21.5 601L0 601Z" fill="#dc6900"></path><path d="M0 449L21.5 447C43 445 86 441 128.8 440.7C171.7 440.3 214.3 443.7 257.2 449.5C300 455.3 343 463.7 385.8 462.5C428.7 461.3 471.3 450.7 514.2 442.2C557 433.7 600 427.3 642.8 428.3C685.7 429.3 728.3 437.7 771.2 442.3C814 447 857 448 878.5 448.5L900 449L900 601L878.5 601C857 601 814 601 771.2 601C728.3 601 685.7 601 642.8 601C600 601 557 601 514.2 601C471.3 601 428.7 601 385.8 601C343 601 300 601 257.2 601C214.3 601 171.7 601 128.8 601C86 601 43 601 21.5 601L0 601Z" fill="#d05610"></path><path d="M0 450L21.5 455.8C43 461.7 86 473.3 128.8 472.7C171.7 472 214.3 459 257.2 456.7C300 454.3 343 462.7 385.8 468.8C428.7 475 471.3 479 514.2 479.2C557 479.3 600 475.7 642.8 477.3C685.7 479 728.3 486 771.2 487C814 488 857 483 878.5 480.5L900 478L900 601L878.5 601C857 601 814 601 771.2 601C728.3 601 685.7 601 642.8 601C600 601 557 601 514.2 601C471.3 601 428.7 601 385.8 601C343 601 300 601 257.2 601C214.3 601 171.7 601 128.8 601C86 601 43 601 21.5 601L0 601Z" fill="#c24418"></path><path d="M0 496L21.5 500C43 504 86 512 128.8 514.8C171.7 517.7 214.3 515.3 257.2 518.7C300 522 343 531 385.8 532C428.7 533 471.3 526 514.2 518.5C557 511 600 503 642.8 499.5C685.7 496 728.3 497 771.2 498.8C814 500.7 857 503.3 878.5 504.7L900 506L900 601L878.5 601C857 601 814 601 771.2 601C728.3 601 685.7 601 642.8 601C600 601 557 601 514.2 601C471.3 601 428.7 601 385.8 601C343 601 300 601 257.2 601C214.3 601 171.7 601 128.8 601C86 601 43 601 21.5 601L0 601Z" fill="#b3321d"></path><path d="M0 542L21.5 546.5C43 551 86 560 128.8 562.2C171.7 564.3 214.3 559.7 257.2 552.5C300 545.3 343 535.7 385.8 535.8C428.7 536 471.3 546 514.2 553.5C557 561 600 566 642.8 565.7C685.7 565.3 728.3 559.7 771.2 557.7C814 555.7 857 557.3 878.5 558.2L900 559L900 601L878.5 601C857 601 814 601 771.2 601C728.3 601 685.7 601 642.8 601C600 601 557 601 514.2 601C471.3 601 428.7 601 385.8 601C343 601 300 601 257.2 601C214.3 601 171.7 601 128.8 601C86 601 43 601 21.5 601L0 601Z" fill="#a32020"></path></svg>