<svg xmlns="http://www.w3.org/2000/svg" xmlns:xlink="http://www.w3.org/1999/xlink" width="500" zoomAndPan="magnify" viewBox="0 0 375 374.999991" height="500" preserveAspectRatio="xMidYMid meet" version="1.0"><defs><filter x="0%" y="0%" width="100%" height="100%" id="b6493f5b77"><feColorMatrix values="0 0 0 0 1 0 0 0 0 1 0 0 0 0 1 0 0 0 1 0" color-interpolation-filters="sRGB"/></filter><g/><mask id="1b85a1cdea"><g filter="url(#b6493f5b77)"><rect x="-37.5" width="450" fill="#000000" y="-37.499999" height="449.999989" fill-opacity="0.7686"/></g></mask><clipPath id="904a038d99"><rect x="0" width="365" y="0" height="280"/></clipPath><mask id="25926ee66b"><g filter="url(#b6493f5b77)"><rect x="-37.5" width="450" fill="#000000" y="-37.499999" height="449.999989" fill-opacity="0.7686"/></g></mask><clipPath id="1b3a9e219c"><rect x="0" width="364" y="0" height="280"/></clipPath></defs><path fill="#dc6900" d="M 189.207031 86.65625 C 211.765625 84.773438 236.328125 91.164062 250.617188 108.703125 C 262.328125 123.085938 265.519531 142.347656 270.472656 160.210938 C 281.445312 199.550781 303.183594 235.773438 332.660156 263.96875 C 348.546875 279.128906 368.320312 295.808594 366.355469 317.6875 C 364.960938 333.300781 352.023438 345.800781 337.738281 352.234375 C 312.96875 363.378906 284.023438 360.347656 258.027344 352.601562 C 231.992188 344.855469 207.386719 332.6875 181.144531 325.679688 C 154.902344 318.671875 125.546875 317.359375 101.84375 330.636719 C 91.648438 336.332031 82.683594 344.652344 71.425781 347.929688 C 34.046875 358.953125 2.195312 317.851562 9.15625 283.1875 C 15.175781 253.148438 51.445312 227.003906 37.730469 194.101562 C 30.648438 177.136719 24.671875 174.636719 19.800781 157.222656 C 15.339844 141.28125 15.417969 115.015625 29.257812 103.089844 C 34.867188 98.296875 42.605469 96.613281 49.972656 96.984375 C 75.886719 98.335938 97.382812 108.253906 124.277344 103.992188 C 156.824219 98.910156 159.363281 89.15625 189.207031 86.65625 Z M 189.207031 86.65625 " fill-opacity="1" fill-rule="nonzero"/><g mask="url(#1b85a1cdea)"><g transform="matrix(1, 0, 0, 1, 5, 60)"><g clip-path="url(#904a038d99)"><path fill="#e0301e" d="M 184.207031 4.28125 C 206.765625 2.394531 231.328125 8.789062 245.617188 26.324219 C 257.328125 40.707031 260.519531 59.96875 265.472656 77.835938 C 276.445312 117.171875 298.183594 153.398438 327.660156 181.589844 C 343.546875 196.75 363.320312 213.429688 361.355469 235.3125 C 359.960938 250.921875 347.023438 263.421875 332.738281 269.855469 C 307.96875 281 279.023438 277.96875 253.027344 270.222656 C 226.992188 262.480469 202.386719 250.308594 176.144531 243.300781 C 149.902344 236.292969 120.546875 234.984375 96.84375 248.261719 C 86.648438 253.957031 77.683594 262.273438 66.425781 265.550781 C 29.046875 276.574219 -2.804688 235.476562 4.15625 200.808594 C 10.175781 170.769531 46.445312 144.628906 32.730469 111.722656 C 25.648438 94.757812 19.671875 92.257812 14.800781 74.84375 C 10.339844 58.902344 10.417969 32.636719 24.257812 20.710938 C 29.867188 15.917969 37.605469 14.238281 44.972656 14.605469 C 70.886719 15.957031 92.382812 25.875 119.277344 21.613281 C 151.824219 16.53125 154.363281 6.78125 184.207031 4.28125 Z M 184.207031 4.28125 " fill-opacity="1" fill-rule="nonzero"/></g></g></g><g mask="url(#25926ee66b)"><g transform="matrix(1, 0, 0, 1, 11, 40)"><g clip-path="url(#1b3a9e219c)"><path fill="#602320" d="M 184.546875 4.257812 C 207.101562 2.371094 231.667969 8.765625 245.953125 26.304688 C 257.664062 40.6875 260.855469 59.945312 265.8125 77.8125 C 276.78125 117.152344 298.519531 153.375 327.996094 181.566406 C 343.882812 196.730469 363.65625 213.40625 361.691406 235.289062 C 360.300781 250.902344 347.363281 263.398438 333.074219 269.832031 C 308.304688 280.980469 279.363281 277.945312 253.363281 270.203125 C 227.328125 262.457031 202.722656 250.285156 176.480469 243.28125 C 150.238281 236.273438 120.882812 234.960938 97.179688 248.238281 C 86.988281 253.933594 78.019531 262.253906 66.761719 265.53125 C 29.382812 276.554688 -2.464844 235.453125 4.492188 200.785156 C 10.511719 170.75 46.785156 144.605469 33.070312 111.699219 C 25.988281 94.734375 20.007812 92.238281 15.136719 74.820312 C 10.675781 58.882812 10.757812 32.613281 24.59375 20.691406 C 30.203125 15.894531 37.941406 14.214844 45.308594 14.585938 C 71.226562 15.9375 92.71875 25.851562 119.617188 21.589844 C 152.164062 16.511719 154.699219 6.757812 184.546875 4.257812 Z M 184.546875 4.257812 " fill-opacity="1" fill-rule="nonzero"/></g></g></g><g fill="#ffffff" fill-opacity="1"><g transform="translate(49.706017, 210.32657)"><g><path d="M 6.9375 0 C 5.96875 0 5.207031 -0.265625 4.65625 -0.796875 C 4.101562 -1.335938 3.828125 -2.09375 3.828125 -3.0625 L 3.828125 -32.390625 C 3.828125 -33.359375 4.101562 -34.109375 4.65625 -34.640625 C 5.207031 -35.179688 5.96875 -35.453125 6.9375 -35.453125 L 16.90625 -35.453125 C 22.695312 -35.453125 27.191406 -33.898438 30.390625 -30.796875 C 33.597656 -27.703125 35.203125 -23.351562 35.203125 -17.75 C 35.203125 -12.125 33.597656 -7.757812 30.390625 -4.65625 C 27.191406 -1.550781 22.695312 0 16.90625 0 Z M 16.5 -5.28125 C 24.644531 -5.28125 28.71875 -9.4375 28.71875 -17.75 C 28.71875 -26.03125 24.644531 -30.171875 16.5 -30.171875 L 10.3125 -30.171875 L 10.3125 -5.28125 Z M 16.5 -5.28125 "/></g></g></g><g fill="#ffffff" fill-opacity="1"><g transform="translate(87.62613, 210.32657)"><g><path d="M 14.484375 0.40625 C 11.972656 0.40625 9.769531 -0.113281 7.875 -1.15625 C 5.976562 -2.195312 4.507812 -3.6875 3.46875 -5.625 C 2.425781 -7.570312 1.90625 -9.835938 1.90625 -12.421875 C 1.90625 -15.003906 2.425781 -17.257812 3.46875 -19.1875 C 4.507812 -21.113281 5.976562 -22.597656 7.875 -23.640625 C 9.769531 -24.679688 11.972656 -25.203125 14.484375 -25.203125 C 16.992188 -25.203125 19.195312 -24.679688 21.09375 -23.640625 C 22.988281 -22.597656 24.445312 -21.113281 25.46875 -19.1875 C 26.5 -17.257812 27.015625 -15.003906 27.015625 -12.421875 C 27.015625 -9.835938 26.5 -7.570312 25.46875 -5.625 C 24.445312 -3.6875 22.988281 -2.195312 21.09375 -1.15625 C 19.195312 -0.113281 16.992188 0.40625 14.484375 0.40625 Z M 14.4375 -4.46875 C 16.476562 -4.46875 18.035156 -5.140625 19.109375 -6.484375 C 20.179688 -7.828125 20.71875 -9.804688 20.71875 -12.421875 C 20.71875 -15.003906 20.179688 -16.972656 19.109375 -18.328125 C 18.035156 -19.691406 16.492188 -20.375 14.484375 -20.375 C 12.472656 -20.375 10.921875 -19.691406 9.828125 -18.328125 C 8.742188 -16.972656 8.203125 -15.003906 8.203125 -12.421875 C 8.203125 -9.804688 8.738281 -7.828125 9.8125 -6.484375 C 10.882812 -5.140625 12.425781 -4.46875 14.4375 -4.46875 Z M 14.4375 -4.46875 "/></g></g></g><g fill="#ffffff" fill-opacity="1"><g transform="translate(116.54399, 210.32657)"><g><path d="M 14.1875 0.40625 C 11.738281 0.40625 9.582031 -0.113281 7.71875 -1.15625 C 5.851562 -2.195312 4.414062 -3.671875 3.40625 -5.578125 C 2.40625 -7.492188 1.90625 -9.722656 1.90625 -12.265625 C 1.90625 -14.816406 2.429688 -17.070312 3.484375 -19.03125 C 4.546875 -21 6.03125 -22.519531 7.9375 -23.59375 C 9.851562 -24.664062 12.050781 -25.203125 14.53125 -25.203125 C 15.84375 -25.203125 17.160156 -25.015625 18.484375 -24.640625 C 19.804688 -24.273438 20.972656 -23.773438 21.984375 -23.140625 C 23.054688 -22.429688 23.59375 -21.539062 23.59375 -20.46875 C 23.59375 -19.726562 23.414062 -19.128906 23.0625 -18.671875 C 22.707031 -18.222656 22.242188 -18 21.671875 -18 C 21.304688 -18 20.921875 -18.082031 20.515625 -18.25 C 20.117188 -18.425781 19.71875 -18.628906 19.3125 -18.859375 C 18.570312 -19.296875 17.867188 -19.640625 17.203125 -19.890625 C 16.535156 -20.140625 15.765625 -20.265625 14.890625 -20.265625 C 12.804688 -20.265625 11.203125 -19.585938 10.078125 -18.234375 C 8.960938 -16.878906 8.40625 -14.925781 8.40625 -12.375 C 8.40625 -9.851562 8.960938 -7.914062 10.078125 -6.5625 C 11.203125 -5.207031 12.804688 -4.53125 14.890625 -4.53125 C 15.722656 -4.53125 16.46875 -4.65625 17.125 -4.90625 C 17.78125 -5.15625 18.507812 -5.5 19.3125 -5.9375 C 19.8125 -6.238281 20.242188 -6.460938 20.609375 -6.609375 C 20.984375 -6.765625 21.359375 -6.84375 21.734375 -6.84375 C 22.265625 -6.84375 22.710938 -6.609375 23.078125 -6.140625 C 23.453125 -5.671875 23.640625 -5.082031 23.640625 -4.375 C 23.640625 -3.800781 23.515625 -3.304688 23.265625 -2.890625 C 23.015625 -2.472656 22.601562 -2.097656 22.03125 -1.765625 C 20.988281 -1.085938 19.78125 -0.554688 18.40625 -0.171875 C 17.03125 0.210938 15.625 0.40625 14.1875 0.40625 Z M 14.1875 0.40625 "/></g></g></g><g fill="#ffffff" fill-opacity="1"><g transform="translate(141.086449, 210.32657)"><g><path d="M 32.1875 -4.078125 C 32.59375 -3.472656 32.796875 -2.882812 32.796875 -2.3125 C 32.796875 -1.539062 32.484375 -0.898438 31.859375 -0.390625 C 31.242188 0.109375 30.515625 0.359375 29.671875 0.359375 C 29.140625 0.359375 28.628906 0.234375 28.140625 -0.015625 C 27.648438 -0.273438 27.238281 -0.65625 26.90625 -1.15625 L 20.21875 -11.3125 C 19.550781 -12.382812 18.835938 -13.140625 18.078125 -13.578125 C 17.328125 -14.015625 16.347656 -14.234375 15.140625 -14.234375 L 10.203125 -14.234375 L 10.203125 -2.96875 C 10.203125 -1.957031 9.914062 -1.160156 9.34375 -0.578125 C 8.78125 0.00390625 8.015625 0.296875 7.046875 0.296875 C 6.066406 0.296875 5.285156 0.00390625 4.703125 -0.578125 C 4.117188 -1.160156 3.828125 -1.957031 3.828125 -2.96875 L 3.828125 -32.390625 C 3.828125 -33.359375 4.101562 -34.109375 4.65625 -34.640625 C 5.207031 -35.179688 5.96875 -35.453125 6.9375 -35.453125 L 19.515625 -35.453125 C 23.535156 -35.453125 26.59375 -34.554688 28.6875 -32.765625 C 30.789062 -30.972656 31.84375 -28.382812 31.84375 -25 C 31.84375 -22.25 31.0625 -19.992188 29.5 -18.234375 C 27.9375 -16.472656 25.734375 -15.34375 22.890625 -14.84375 C 23.859375 -14.601562 24.710938 -14.179688 25.453125 -13.578125 C 26.191406 -12.972656 26.910156 -12.132812 27.609375 -11.0625 Z M 18.609375 -19.21875 C 21.054688 -19.21875 22.847656 -19.675781 23.984375 -20.59375 C 25.128906 -21.519531 25.703125 -22.9375 25.703125 -24.84375 C 25.703125 -26.789062 25.128906 -28.207031 23.984375 -29.09375 C 22.847656 -29.976562 21.054688 -30.421875 18.609375 -30.421875 L 10.15625 -30.421875 L 10.15625 -19.21875 Z M 18.609375 -19.21875 "/></g></g></g><g fill="#ffffff" fill-opacity="1"><g transform="translate(176.039344, 210.32657)"><g><path d="M 22.734375 -6.734375 C 23.304688 -6.734375 23.765625 -6.515625 24.109375 -6.078125 C 24.460938 -5.648438 24.640625 -5.066406 24.640625 -4.328125 C 24.640625 -3.285156 24.019531 -2.410156 22.78125 -1.703125 C 21.644531 -1.066406 20.351562 -0.554688 18.90625 -0.171875 C 17.46875 0.210938 16.09375 0.40625 14.78125 0.40625 C 10.832031 0.40625 7.695312 -0.734375 5.375 -3.015625 C 3.0625 -5.296875 1.90625 -8.414062 1.90625 -12.375 C 1.90625 -14.882812 2.40625 -17.113281 3.40625 -19.0625 C 4.414062 -21.007812 5.832031 -22.519531 7.65625 -23.59375 C 9.488281 -24.664062 11.5625 -25.203125 13.875 -25.203125 C 16.09375 -25.203125 18.019531 -24.710938 19.65625 -23.734375 C 21.300781 -22.765625 22.578125 -21.390625 23.484375 -19.609375 C 24.390625 -17.835938 24.84375 -15.742188 24.84375 -13.328125 C 24.84375 -11.890625 24.207031 -11.171875 22.9375 -11.171875 L 8.09375 -11.171875 C 8.300781 -8.859375 8.957031 -7.15625 10.0625 -6.0625 C 11.164062 -4.96875 12.773438 -4.421875 14.890625 -4.421875 C 15.960938 -4.421875 16.910156 -4.554688 17.734375 -4.828125 C 18.554688 -5.097656 19.484375 -5.46875 20.515625 -5.9375 C 21.523438 -6.46875 22.265625 -6.734375 22.734375 -6.734375 Z M 14.03125 -20.765625 C 12.320312 -20.765625 10.957031 -20.226562 9.9375 -19.15625 C 8.914062 -18.082031 8.300781 -16.539062 8.09375 -14.53125 L 19.46875 -14.53125 C 19.394531 -16.582031 18.890625 -18.132812 17.953125 -19.1875 C 17.015625 -20.238281 15.707031 -20.765625 14.03125 -20.765625 Z M 14.03125 -20.765625 "/></g></g></g><g fill="#ffffff" fill-opacity="1"><g transform="translate(202.744357, 210.32657)"><g><path d="M 13.9375 -25.203125 C 17.351562 -25.203125 19.890625 -24.351562 21.546875 -22.65625 C 23.210938 -20.96875 24.046875 -18.394531 24.046875 -14.9375 L 24.046875 -2.671875 C 24.046875 -1.765625 23.773438 -1.050781 23.234375 -0.53125 C 22.703125 -0.0078125 21.96875 0.25 21.03125 0.25 C 20.15625 0.25 19.441406 -0.015625 18.890625 -0.546875 C 18.335938 -1.085938 18.0625 -1.796875 18.0625 -2.671875 L 18.0625 -3.765625 C 17.488281 -2.460938 16.585938 -1.441406 15.359375 -0.703125 C 14.140625 0.0351562 12.722656 0.40625 11.109375 0.40625 C 9.472656 0.40625 7.984375 0.0703125 6.640625 -0.59375 C 5.296875 -1.269531 4.238281 -2.191406 3.46875 -3.359375 C 2.695312 -4.535156 2.3125 -5.847656 2.3125 -7.296875 C 2.3125 -9.109375 2.769531 -10.53125 3.6875 -11.5625 C 4.613281 -12.601562 6.113281 -13.359375 8.1875 -13.828125 C 10.269531 -14.296875 13.140625 -14.53125 16.796875 -14.53125 L 18.0625 -14.53125 L 18.0625 -15.6875 C 18.0625 -17.332031 17.707031 -18.53125 17 -19.28125 C 16.289062 -20.039062 15.148438 -20.421875 13.578125 -20.421875 C 12.609375 -20.421875 11.617188 -20.273438 10.609375 -19.984375 C 9.609375 -19.703125 8.421875 -19.296875 7.046875 -18.765625 C 6.171875 -18.328125 5.53125 -18.109375 5.125 -18.109375 C 4.519531 -18.109375 4.023438 -18.328125 3.640625 -18.765625 C 3.253906 -19.203125 3.0625 -19.769531 3.0625 -20.46875 C 3.0625 -21.039062 3.203125 -21.535156 3.484375 -21.953125 C 3.773438 -22.367188 4.253906 -22.765625 4.921875 -23.140625 C 6.097656 -23.773438 7.5 -24.273438 9.125 -24.640625 C 10.75 -25.015625 12.351562 -25.203125 13.9375 -25.203125 Z M 12.375 -4.125 C 14.050781 -4.125 15.414062 -4.6875 16.46875 -5.8125 C 17.53125 -6.9375 18.0625 -8.382812 18.0625 -10.15625 L 18.0625 -11.21875 L 17.15625 -11.21875 C 14.90625 -11.21875 13.160156 -11.113281 11.921875 -10.90625 C 10.679688 -10.707031 9.789062 -10.359375 9.25 -9.859375 C 8.71875 -9.359375 8.453125 -8.671875 8.453125 -7.796875 C 8.453125 -6.722656 8.828125 -5.84375 9.578125 -5.15625 C 10.335938 -4.46875 11.269531 -4.125 12.375 -4.125 Z M 12.375 -4.125 "/></g></g></g><g fill="#ffffff" fill-opacity="1"><g transform="translate(229.901995, 210.32657)"><g><path d="M 23.796875 -35.703125 C 24.734375 -35.703125 25.503906 -35.429688 26.109375 -34.890625 C 26.710938 -34.359375 27.015625 -33.660156 27.015625 -32.796875 L 27.015625 -2.71875 C 27.015625 -1.8125 26.726562 -1.085938 26.15625 -0.546875 C 25.582031 -0.015625 24.828125 0.25 23.890625 0.25 C 22.953125 0.25 22.195312 -0.015625 21.625 -0.546875 C 21.050781 -1.085938 20.765625 -1.8125 20.765625 -2.71875 L 20.765625 -3.96875 C 20.035156 -2.59375 18.972656 -1.519531 17.578125 -0.75 C 16.179688 0.0195312 14.597656 0.40625 12.828125 0.40625 C 10.710938 0.40625 8.820312 -0.128906 7.15625 -1.203125 C 5.5 -2.273438 4.207031 -3.789062 3.28125 -5.75 C 2.363281 -7.71875 1.90625 -9.976562 1.90625 -12.53125 C 1.90625 -15.070312 2.363281 -17.296875 3.28125 -19.203125 C 4.207031 -21.117188 5.492188 -22.597656 7.140625 -23.640625 C 8.785156 -24.679688 10.679688 -25.203125 12.828125 -25.203125 C 14.597656 -25.203125 16.171875 -24.832031 17.546875 -24.09375 C 18.921875 -23.351562 19.976562 -22.3125 20.71875 -20.96875 L 20.71875 -32.890625 C 20.71875 -33.734375 20.992188 -34.410156 21.546875 -34.921875 C 22.097656 -35.441406 22.847656 -35.703125 23.796875 -35.703125 Z M 14.484375 -4.46875 C 16.492188 -4.46875 18.039062 -5.15625 19.125 -6.53125 C 20.21875 -7.90625 20.765625 -9.867188 20.765625 -12.421875 C 20.765625 -14.972656 20.21875 -16.925781 19.125 -18.28125 C 18.039062 -19.632812 16.507812 -20.3125 14.53125 -20.3125 C 12.519531 -20.3125 10.960938 -19.640625 9.859375 -18.296875 C 8.753906 -16.960938 8.203125 -15.039062 8.203125 -12.53125 C 8.203125 -9.976562 8.753906 -7.992188 9.859375 -6.578125 C 10.960938 -5.171875 12.503906 -4.46875 14.484375 -4.46875 Z M 14.484375 -4.46875 "/></g></g></g><g fill="#ffffff" fill-opacity="1"><g transform="translate(260.127452, 210.32657)"><g><path d="M 22.734375 -6.734375 C 23.304688 -6.734375 23.765625 -6.515625 24.109375 -6.078125 C 24.460938 -5.648438 24.640625 -5.066406 24.640625 -4.328125 C 24.640625 -3.285156 24.019531 -2.410156 22.78125 -1.703125 C 21.644531 -1.066406 20.351562 -0.554688 18.90625 -0.171875 C 17.46875 0.210938 16.09375 0.40625 14.78125 0.40625 C 10.832031 0.40625 7.695312 -0.734375 5.375 -3.015625 C 3.0625 -5.296875 1.90625 -8.414062 1.90625 -12.375 C 1.90625 -14.882812 2.40625 -17.113281 3.40625 -19.0625 C 4.414062 -21.007812 5.832031 -22.519531 7.65625 -23.59375 C 9.488281 -24.664062 11.5625 -25.203125 13.875 -25.203125 C 16.09375 -25.203125 18.019531 -24.710938 19.65625 -23.734375 C 21.300781 -22.765625 22.578125 -21.390625 23.484375 -19.609375 C 24.390625 -17.835938 24.84375 -15.742188 24.84375 -13.328125 C 24.84375 -11.890625 24.207031 -11.171875 22.9375 -11.171875 L 8.09375 -11.171875 C 8.300781 -8.859375 8.957031 -7.15625 10.0625 -6.0625 C 11.164062 -4.96875 12.773438 -4.421875 14.890625 -4.421875 C 15.960938 -4.421875 16.910156 -4.554688 17.734375 -4.828125 C 18.554688 -5.097656 19.484375 -5.46875 20.515625 -5.9375 C 21.523438 -6.46875 22.265625 -6.734375 22.734375 -6.734375 Z M 14.03125 -20.765625 C 12.320312 -20.765625 10.957031 -20.226562 9.9375 -19.15625 C 8.914062 -18.082031 8.300781 -16.539062 8.09375 -14.53125 L 19.46875 -14.53125 C 19.394531 -16.582031 18.890625 -18.132812 17.953125 -19.1875 C 17.015625 -20.238281 15.707031 -20.765625 14.03125 -20.765625 Z M 14.03125 -20.765625 "/></g></g></g><g fill="#ffffff" fill-opacity="1"><g transform="translate(286.832464, 210.32657)"><g><path d="M 17 -25.09375 C 17.875 -25.164062 18.5625 -24.984375 19.0625 -24.546875 C 19.5625 -24.109375 19.8125 -23.453125 19.8125 -22.578125 C 19.8125 -21.671875 19.59375 -21 19.15625 -20.5625 C 18.726562 -20.132812 17.941406 -19.851562 16.796875 -19.71875 L 15.296875 -19.5625 C 13.316406 -19.363281 11.863281 -18.691406 10.9375 -17.546875 C 10.019531 -16.410156 9.5625 -14.988281 9.5625 -13.28125 L 9.5625 -2.71875 C 9.5625 -1.738281 9.257812 -0.988281 8.65625 -0.46875 C 8.050781 0.0390625 7.296875 0.296875 6.390625 0.296875 C 5.484375 0.296875 4.734375 0.0390625 4.140625 -0.46875 C 3.554688 -0.988281 3.265625 -1.738281 3.265625 -2.71875 L 3.265625 -22.1875 C 3.265625 -23.125 3.554688 -23.84375 4.140625 -24.34375 C 4.734375 -24.84375 5.46875 -25.09375 6.34375 -25.09375 C 7.207031 -25.09375 7.90625 -24.847656 8.4375 -24.359375 C 8.976562 -23.878906 9.25 -23.1875 9.25 -22.28125 L 9.25 -20.265625 C 9.882812 -21.742188 10.832031 -22.882812 12.09375 -23.6875 C 13.351562 -24.488281 14.753906 -24.941406 16.296875 -25.046875 Z M 17 -25.09375 "/></g></g></g></svg>